<?xml version="1.0" standalone="no"?>
<!DOCTYPE svg PUBLIC "-//W3C//DTD SVG 20010904//EN"
 "http://www.w3.org/TR/2001/REC-SVG-20010904/DTD/svg10.dtd">
<svg version="1.0" xmlns="http://www.w3.org/2000/svg"
 width="568.000000pt" height="608.000000pt" viewBox="0 0 568.000000 608.000000"
 preserveAspectRatio="xMidYMid meet">
<metadata>
Created by potrace 1.12, written by Peter Selinger 2001-2015
</metadata>
<g transform="translate(0.000000,608.000000) scale(0.100000,-0.100000)"
fill="#000000" stroke="none">
<path d="M2745 6046 c-58 -27 -98 -66 -119 -118 -18 -42 -21 -126 -6 -178 18
-66 118 -140 187 -140 25 1 26 2 11 13 -11 9 -14 18 -8 27 4 7 6 18 4 25 -12
30 67 54 99 30 9 -7 18 -24 19 -39 3 -34 15 -33 60 4 38 31 78 116 78 165 0
43 -39 130 -72 162 -41 40 -118 73 -166 72 -20 0 -59 -11 -87 -23z"/>
<path d="M4095 5762 c-28 -15 -62 -45 -79 -70 -26 -37 -31 -55 -34 -117 -4
-65 -1 -78 22 -118 28 -47 56 -69 51 -39 -3 25 48 70 90 78 67 12 119 -37 117
-113 0 -51 7 -53 70 -13 120 75 143 232 51 339 -72 85 -191 107 -288 53z"/>
<path d="M4315 5249 c-89 -17 -275 -66 -284 -74 -1 -2 7 -34 19 -70 20 -59 25
-66 44 -61 201 51 236 57 402 63 196 7 176 15 213 -93 47 -140 73 -277 75
-389 l1 -110 -75 -6 c-135 -11 -286 -49 -415 -104 -94 -40 -223 -124 -243
-160 -22 -37 -52 -52 -32 -16 8 17 7 19 -15 16 -14 -1 -25 3 -25 9 0 6 -5 4
-10 -4 -8 -12 -10 -12 -10 -1 0 10 -3 11 -14 2 -12 -10 -14 -8 -10 11 5 22 5
22 -7 3 -7 -11 -15 -22 -18 -25 -3 -3 -21 -36 -39 -73 -91 -186 -269 -386
-432 -485 -55 -33 -152 -83 -155 -80 -28 30 -65 224 -65 338 0 133 39 294 105
437 114 244 303 443 541 569 38 20 71 38 73 40 2 1 -7 32 -20 68 -28 77 -21
76 -146 8 -179 -98 -352 -255 -457 -414 -30 -46 -56 -96 -57 -113 -5 -44 -17
-58 -36 -39 -10 9 -18 12 -22 6 -3 -6 -20 -12 -36 -14 l-30 -3 -6 -100 c-18
-288 -97 -501 -247 -665 l-42 -45 -20 25 c-200 247 -291 563 -260 897 6 66 15
134 19 151 9 30 -1 63 -13 44 -8 -13 -66 -13 -82 -1 -17 14 -28 -7 -47 -86
-48 -201 -50 -327 -8 -512 38 -169 45 -239 33 -354 -11 -98 -47 -239 -63 -239
-20 0 -180 88 -199 110 -3 3 -18 14 -34 24 -56 36 -190 173 -262 269 -41 54
-74 92 -74 85 0 -8 -5 -6 -11 5 -5 9 -16 17 -24 17 -8 0 -18 -8 -24 -17 -9
-17 -11 -17 -25 2 -13 16 -15 17 -10 3 9 -26 -5 -22 -16 5 -8 20 -9 20 -10 2
0 -18 -2 -17 -15 5 -17 29 -21 39 -50 106 -20 45 -31 56 -101 97 -212 124
-385 174 -659 192 -154 9 -396 -31 -605 -102 -88 -30 -130 -50 -130 -62 0 -21
54 -111 67 -111 7 0 30 7 51 16 66 28 151 54 255 79 125 31 378 44 500 26 403
-57 766 -337 893 -688 27 -73 57 -229 48 -244 -14 -24 -250 10 -381 55 -109
37 -281 127 -304 160 -4 5 -14 6 -24 3 -9 -4 -14 -3 -11 2 7 11 -22 36 -31 27
-3 -3 -2 -6 4 -6 5 0 10 -7 10 -15 0 -8 -4 -15 -9 -15 -5 0 -5 -8 0 -17 5 -10
6 -27 2 -37 -8 -23 -1 -68 10 -61 4 3 10 -1 13 -9 12 -31 185 -126 306 -167
146 -51 212 -62 395 -67 l179 -4 -6 108 c-4 60 -13 136 -21 169 -8 33 -11 63
-7 68 6 6 47 -18 86 -51 22 -18 279 -142 294 -142 25 0 79 140 102 260 15 81
22 90 45 54 41 -65 154 -211 187 -243 l36 -34 75 79 c42 44 97 109 123 146 27
37 51 67 54 68 3 0 10 -24 16 -52 14 -69 41 -168 53 -193 5 -11 16 -37 24 -57
l15 -38 41 15 c59 21 194 89 275 140 39 24 71 42 73 40 1 -1 -4 -42 -13 -91
-9 -49 -18 -130 -22 -180 -6 -89 -5 -92 17 -99 62 -20 369 23 510 71 238 81
468 249 618 449 62 83 151 261 181 361 11 38 27 109 34 157 8 48 17 91 21 94
18 19 313 -40 434 -87 29 -11 56 -20 61 -20 13 0 63 122 54 131 -32 30 -338
105 -469 116 l-71 6 -12 136 c-22 228 -69 416 -144 571 l-22 45 -175 2 c-136
1 -197 -3 -275 -18z m463 -907 c4 -40 -38 -200 -78 -296 -46 -111 -123 -221
-229 -327 -134 -135 -281 -226 -456 -283 -78 -26 -278 -61 -300 -52 -17 6 0
146 31 246 51 168 128 285 278 427 134 127 274 210 446 263 85 27 269 61 295
56 6 -2 11 -17 13 -34z"/>
<path d="M5153 5004 c-24 -9 -59 -34 -82 -59 -153 -166 5 -432 220 -369 72 21
114 55 144 114 93 184 -85 383 -282 314z"/>
<path d="M300 4969 c-59 -27 -98 -64 -121 -117 -47 -109 -2 -234 104 -287 95
-47 197 -27 269 53 99 110 65 275 -71 345 -65 33 -118 34 -181 6z"/>
<path d="M2320 3249 c-47 -5 -94 -13 -105 -18 -11 -6 -36 -13 -55 -17 -46 -9
-177 -53 -325 -109 -371 -142 -457 -170 -583 -195 -57 -11 -126 -20 -155 -20
-98 0 -210 44 -275 107 -7 7 -15 13 -17 13 -1 0 -49 -53 -106 -117 -153 -175
-336 -372 -478 -516 -138 -139 -138 -139 -72 -184 83 -56 233 -88 361 -77 194
16 400 78 845 254 252 99 311 121 440 164 72 24 146 46 165 50 19 4 46 11 60
17 26 9 139 29 175 30 11 1 14 3 8 6 -16 6 -16 43 1 152 7 47 18 87 24 89 7 2
12 14 12 26 0 27 49 128 67 139 7 4 13 13 13 20 0 15 63 87 75 87 15 0 80 61
77 72 -1 5 2 7 7 4 5 -3 22 1 37 9 l29 15 -35 -1 c-19 -1 -51 1 -70 4 -19 3
-73 1 -120 -4z"/>
<path d="M3190 3250 c-8 -5 -24 -7 -35 -3 -18 5 -18 4 -3 -11 9 -9 29 -16 45
-17 25 0 26 -1 8 -9 -19 -8 -19 -9 2 -9 12 -1 26 -8 31 -17 5 -8 20 -23 34
-32 34 -22 100 -108 118 -152 8 -19 16 -37 19 -40 32 -29 71 -185 71 -285 0
-38 3 -45 23 -49 12 -2 47 -9 77 -14 120 -22 290 -73 455 -137 33 -13 103 -40
155 -60 52 -20 156 -61 231 -91 74 -30 139 -54 143 -54 4 0 22 -6 39 -14 31
-14 128 -47 232 -79 75 -23 241 -55 320 -63 119 -11 275 24 356 79 66 45 66
45 -72 184 -138 141 -318 335 -478 515 -67 76 -108 115 -115 110 -6 -5 -29
-23 -51 -39 -50 -39 -160 -73 -235 -73 -91 0 -284 44 -420 95 -19 7 -91 35
-160 60 -69 26 -163 62 -210 80 -47 18 -103 38 -125 45 -22 6 -49 15 -60 20
-90 41 -362 82 -395 60z"/>
<path d="M202 1857 l-102 -102 0 -813 0 -813 138 3 137 3 2 913 2 912 -37 0
c-34 0 -47 -9 -140 -103z m158 -892 l0 -370 -118 0 c-66 0 -120 4 -124 10 -4
6 -8 168 -8 362 0 295 2 353 14 360 8 4 64 8 125 8 l111 0 0 -370z"/>
<path d="M657 1048 l3 -913 407 -3 c336 -2 425 0 502 13 157 26 284 102 360
215 17 25 31 50 31 55 0 6 7 23 15 39 24 46 38 163 32 273 -4 87 -9 112 -35
168 -37 78 -119 164 -186 195 -25 12 -49 26 -51 31 -3 4 11 19 32 33 144 92
200 270 152 484 -14 63 -44 118 -96 173 -53 57 -88 80 -175 117 l-63 27 -465
3 -465 3 2 -913z m873 636 c58 -28 94 -67 114 -127 21 -64 20 -123 -5 -177
-25 -56 -53 -86 -104 -113 -38 -21 -55 -22 -327 -25 l-288 -3 0 229 c0 126 3
232 7 236 4 4 132 6 283 4 256 -3 278 -4 320 -24z m137 -346 c-6 -16 164 -19
175 -3 5 6 8 4 8 -5 0 -13 1 -13 10 0 8 12 10 12 15 -3 14 -35 -73 -140 -147
-178 -21 -11 -38 -23 -38 -27 0 -4 27 -18 60 -30 150 -59 250 -221 250 -409 0
-24 -4 -43 -10 -43 -5 0 -10 -9 -10 -20 0 -11 -3 -20 -7 -21 -56 -5 -183 -3
-199 2 -18 6 -21 16 -23 73 -4 152 -64 244 -196 303 -35 15 -80 18 -341 21
l-301 4 -9 -199 -9 -198 -104 -3 c-77 -2 -107 1 -113 10 -10 17 -10 689 0 706
6 9 36 12 113 10 l104 -3 5 -50 5 -50 290 0 c245 1 296 3 332 17 38 15 83 48
122 90 20 20 25 22 18 6z m-105 -380 c120 -56 175 -155 166 -300 -8 -122 -52
-193 -146 -240 -45 -22 -57 -23 -354 -26 l-308 -4 0 295 c0 161 3 297 7 301 5
4 136 6 293 4 283 -4 285 -4 342 -30z"/>
<path d="M2250 1045 l0 -915 135 0 135 0 0 665 c0 366 4 665 8 665 5 0 32 -39
61 -87 29 -49 90 -146 136 -218 46 -71 96 -150 111 -175 15 -25 51 -81 79
-125 28 -44 91 -143 140 -220 49 -77 114 -179 144 -227 31 -48 83 -130 116
-182 l60 -96 133 0 132 0 0 915 0 915 -136 0 -137 0 5 -665 c4 -480 2 -665 -6
-662 -6 2 -39 50 -73 108 -64 107 -94 156 -173 283 -25 39 -49 80 -55 89 -5 9
-32 52 -59 94 -27 43 -67 107 -89 143 -22 36 -50 81 -63 100 -12 19 -45 73
-74 120 -29 47 -63 102 -76 123 -35 54 -65 102 -119 190 l-48 77 -144 0 -143
0 0 -915z m421 286 c7 11 9 11 9 1 0 -7 5 -10 10 -7 14 8 196 9 209 0 11 -6
218 -318 266 -400 17 -27 34 -57 40 -66 99 -161 167 -312 118 -263 -9 9 -18
13 -20 8 -2 -5 -33 -8 -70 -7 -38 1 -83 2 -102 2 -19 1 -32 4 -29 7 3 3 -5 17
-18 31 -14 15 -44 56 -68 92 -159 243 -215 330 -230 356 -9 17 -30 50 -46 75
-44 69 -90 158 -89 172 0 10 2 10 6 -1 5 -11 7 -11 14 0z m-170 -31 c9 -32 11
-557 3 -638 l-7 -61 -98 -3 c-55 -2 -99 0 -99 5 0 4 -5 6 -12 5 -7 -2 -15 11
-19 27 -8 38 -11 607 -3 658 l7 38 110 -3 c109 -3 111 -3 118 -28z m1123 15
c9 -23 7 -688 -2 -702 -4 -7 -47 -12 -114 -15 l-107 -3 -6 46 c-9 64 -10 639
-1 665 6 20 14 22 115 23 92 2 110 -1 115 -14z"/>
<path d="M3920 1498 c0 -254 3 -458 8 -454 4 4 9 69 12 143 l5 136 105 -2 c57
-1 107 -5 110 -7 8 -9 13 -598 5 -669 l-6 -64 -102 -3 c-60 -2 -105 1 -109 7
-4 6 -8 84 -9 175 0 91 -4 190 -9 220 -4 31 -8 -143 -9 -397 l-1 -453 135 0
135 0 1 618 c0 536 2 613 14 587 27 -57 55 -124 55 -130 0 -3 9 -27 21 -53 33
-74 45 -102 79 -182 17 -41 37 -88 45 -105 7 -16 34 -79 59 -140 26 -60 51
-119 56 -130 5 -11 23 -54 40 -95 17 -41 37 -88 44 -105 8 -16 37 -86 66 -155
59 -140 66 -152 76 -124 4 10 15 37 24 59 10 22 39 90 65 150 25 61 53 124 60
140 8 17 44 100 80 185 37 85 72 169 80 185 7 17 34 80 60 140 25 61 52 121
59 135 7 14 32 75 56 137 25 61 48 109 52 107 4 -3 8 -279 8 -615 l0 -609 33
0 c28 0 47 14 135 103 l102 102 0 813 0 812 -150 0 c-82 0 -150 -1 -150 -2 0
-2 -14 -37 -31 -78 -17 -41 -46 -113 -65 -160 -19 -47 -39 -94 -44 -105 -9
-20 -20 -46 -65 -155 -39 -94 -131 -321 -169 -415 -20 -49 -43 -104 -51 -122
-8 -17 -15 -34 -15 -38 0 -4 -7 -21 -15 -38 -8 -18 -24 -58 -35 -90 -25 -67
-40 -65 -60 8 -7 25 -17 48 -21 51 -5 3 -9 12 -9 20 0 8 -9 33 -19 57 -11 23
-31 71 -46 107 -15 36 -33 79 -40 95 -8 17 -26 59 -40 95 -15 36 -33 79 -41
95 -7 17 -29 68 -48 115 -19 47 -55 135 -81 195 -25 61 -61 146 -80 190 -18
44 -42 101 -54 128 l-20 47 -146 0 -145 0 0 -462z m525 -186 c-3 -7 -1 -10 5
-7 18 11 210 -426 261 -595 13 -42 29 -64 39 -53 4 4 13 26 20 48 35 115 157
413 225 550 l30 60 103 3 c56 1 102 0 102 -4 0 -10 -49 -145 -65 -181 -8 -17
-15 -35 -15 -39 0 -10 -150 -349 -193 -436 -19 -38 -37 -65 -40 -61 -4 3 -7 1
-7 -5 0 -9 -49 -12 -180 -12 l-180 0 -36 78 c-103 219 -231 524 -260 620 -13
41 -13 43 6 37 11 -4 20 -3 20 2 0 4 38 8 85 8 66 0 84 -3 80 -13z m1015 7
l90 -2 0 -367 0 -367 -92 -2 c-51 -2 -108 -4 -125 -6 l-33 -3 0 343 c0 339 4
420 21 393 7 -10 9 -9 9 4 0 12 6 16 20 13 12 -2 61 -5 110 -6z"/>
</g>
</svg>
